# xmcd
#
# Track frame offsets:
#	150
#	23240
#	47649
#	65300
#	81181
#	101329
#	119994
#	154819
#	194230
#	229221
#	249875
#	280704
#	301272
#
# Disc length: 4501
#
# Revision: 2
# Processed by: cddbd v1.5.1PL0 Copyright (c) Steve Scherf et al.
# Submitted via: OrangeCD 5.2
# Normalized: r1:DSETVAR1
#
DISCID=af11930d
DTITLE=Various Artist - The Jazz Giants Play Harold Arlen: Blues In the Night
DYEAR=1900
DGENRE=Jazz
TTITLE0=Red Garland - Blues In the Night
TTITLE1=Miles Davis - It's Only a Paper Moon
TTITLE2=Art Tatum - I Gotta Right To Sing the Blues
TTITLE3=Count Basie - As Long As I Live
TTITLE4=Joe Pass - My Shining Hour
TTITLE5=Milt Jackson - Ill Wind (You're Blowing Me No Good)
TTITLE6=Wes Montgomery - One For My Baby
TTITLE7=John Coltrane - Come Rain Or Come Shine
TTITLE8=Bud Shank - Bill Perkins - Out Of This World
TTITLE9=André Previn - That Old Black Magic
TTITLE10=Art Pepper - Over the Rainbow
TTITLE11=Bill Evans - A Sleepin' Bee
TTITLE12=Dizzy Gillespie - Get Happy
EXTD=
EXTT0=
EXTT1=
EXTT2=
EXTT3=
EXTT4=
EXTT5=
EXTT6=
EXTT7=
EXTT8=
EXTT9=
EXTT10=
EXTT11=
EXTT12=
PLAYORDER=
